<svg xmlns="http://www.w3.org/2000/svg" viewBox="0 0 128 128">
  <defs>
    <linearGradient id="bg" x1="22" y1="12" x2="104" y2="116" gradientUnits="userSpaceOnUse">
      <stop stop-color="#2f7cff"/>
      <stop offset=".54" stop-color="#1967ff"/>
      <stop offset="1" stop-color="#071a54"/>
    </linearGradient>
  </defs>
  <rect width="128" height="128" rx="36" fill="#eef2f0"/>
  <circle cx="64" cy="64" r="52" fill="url(#bg)"/>
  <path d="M29 88 47 68l17 10 17-10 18 20c-8 12-20 19-35 19S37 100 29 88Z" fill="#fff"/>
  <path d="M43 48 64 28l21 20-9 29H52L43 48Z" fill="#dbe8ff"/>
  <path d="M43 48h42L64 59 43 48Z" fill="#fff"/>
  <path d="M43 48 64 59 52 77 43 48Z" fill="#cfe0ff"/>
  <path d="M85 48 64 59l12 18 9-29Z" fill="#fff"/>
</svg>
