<svg xmlns="http://www.w3.org/2000/svg" viewBox="0 0 128 128" role="img" aria-labelledby="title desc">
  <title id="title">Nafish Ahmed developer avatar</title>
  <desc id="desc">Blue circular avatar with white triangulated person mark.</desc>
  <defs>
    <linearGradient id="bg" x1="22" y1="12" x2="104" y2="116" gradientUnits="userSpaceOnUse">
      <stop stop-color="#2f7cff"/>
      <stop offset=".54" stop-color="#1967ff"/>
      <stop offset="1" stop-color="#071a54"/>
    </linearGradient>
    <linearGradient id="face" x1="41" y1="30" x2="89" y2="100" gradientUnits="userSpaceOnUse">
      <stop stop-color="#ffffff"/>
      <stop offset="1" stop-color="#dbe8ff"/>
    </linearGradient>
    <filter id="shadow" x="-20%" y="-20%" width="140%" height="140%">
      <feDropShadow dx="0" dy="12" stdDeviation="12" flood-color="#06133c" flood-opacity=".36"/>
    </filter>
  </defs>
  <rect width="128" height="128" rx="36" fill="#eef2f0"/>
  <circle cx="64" cy="64" r="52" fill="url(#bg)" filter="url(#shadow)"/>
  <circle cx="64" cy="64" r="51" fill="none" stroke="#ffffff" stroke-opacity=".18" stroke-width="2"/>
  <path d="M29 88 47 68l17 10 17-10 18 20c-8 12-20 19-35 19S37 100 29 88Z" fill="#ffffff" opacity=".96"/>
  <path d="M43 48 64 28l21 20-9 29H52L43 48Z" fill="url(#face)"/>
  <path d="M43 48h42L64 59 43 48Z" fill="#ffffff"/>
  <path d="M43 48 64 59 52 77 43 48Z" fill="#d9e7ff"/>
  <path d="M85 48 64 59l12 18 9-29Z" fill="#edf4ff"/>
  <path d="M52 77 64 59l12 18-12 9-12-9Z" fill="#ffffff"/>
  <path d="M46 49 35 58l14 4-3-13ZM82 49l11 9-14 4 3-13Z" fill="#ffffff" opacity=".92"/>
  <path d="M48 34 31 43l13 7 20-22-16 6ZM80 34l17 9-13 7-20-22 16 6Z" fill="#ffffff" opacity=".72"/>
  <path d="M50 88h28l-14 19-14-19Z" fill="#e8f0ff"/>
  <path d="M29 88 50 88 64 107c-15 0-27-7-35-19ZM78 88h21c-8 12-20 19-35 19l14-19Z" fill="#ffffff" opacity=".82"/>
</svg>
